<svg id="visual" viewBox="0 0 1920 1080" width="1920" height="1080" xmlns="http://www.w3.org/2000/svg" xmlns:xlink="http://www.w3.org/1999/xlink" version="1.1"><path d="M0 713L160 804L320 670L480 661L640 724L800 744L960 752L1120 769L1280 746L1440 711L1600 725L1760 634L1920 741L1920 1081L1760 1081L1600 1081L1440 1081L1280 1081L1120 1081L960 1081L800 1081L640 1081L480 1081L320 1081L160 1081L0 1081Z" fill="#8abb38"></path><path d="M0 852L160 721L320 771L480 811L640 722L800 854L960 847L1120 797L1280 768L1440 734L1600 817L1760 747L1920 787L1920 1081L1760 1081L1600 1081L1440 1081L1280 1081L1120 1081L960 1081L800 1081L640 1081L480 1081L320 1081L160 1081L0 1081Z" fill="#7aac36"></path><path d="M0 881L160 890L320 864L480 801L640 837L800 900L960 896L1120 843L1280 907L1440 827L1600 796L1760 871L1920 839L1920 1081L1760 1081L1600 1081L1440 1081L1280 1081L1120 1081L960 1081L800 1081L640 1081L480 1081L320 1081L160 1081L0 1081Z" fill="#6a9d33"></path><path d="M0 927L160 902L320 903L480 917L640 900L800 974L960 942L1120 962L1280 868L1440 944L1600 888L1760 974L1920 901L1920 1081L1760 1081L1600 1081L1440 1081L1280 1081L1120 1081L960 1081L800 1081L640 1081L480 1081L320 1081L160 1081L0 1081Z" fill="#5c8e30"></path><path d="M0 995L160 1001L320 975L480 969L640 954L800 993L960 1013L1120 1028L1280 1002L1440 1016L1600 1008L1760 978L1920 953L1920 1081L1760 1081L1600 1081L1440 1081L1280 1081L1120 1081L960 1081L800 1081L640 1081L480 1081L320 1081L160 1081L0 1081Z" fill="#4e802d"></path></svg>